<?xml version="1.0" encoding="utf-8"?>
<!-- Generator: Adobe Illustrator 24.0.0, SVG Export Plug-In . SVG Version: 6.00 Build 0)  -->
<svg version="1.1" id="Capa_1" xmlns="http://www.w3.org/2000/svg" xmlns:xlink="http://www.w3.org/1999/xlink" x="0px" y="0px"
	 viewBox="0 0 850 650" style="enable-background:new 0 0 850 650;" xml:space="preserve">
<style type="text/css">
	.st0{fill:#212529;}
	.st1{fill:none;stroke:#EB7803;stroke-width:93.4555;}
	.st2{fill:none;stroke:#EB7803;stroke-width:25.9842;}
	.st3{fill:none;stroke:#EB7803;stroke-width:32.3203;}
	.st4{fill:none;stroke:#EB7803;stroke-width:14.9423;}
	.st5{fill:none;stroke:#EB7803;stroke-width:11.1404;}
	.st6{fill:none;stroke:#EA4D93;stroke-width:19.4362;}
	.st7{fill:none;stroke:#EA4D93;stroke-width:17.0147;}
	.st8{fill:none;stroke:#EA4D93;stroke-width:9.6794;}
	.st9{fill:none;stroke:#EA4D93;stroke-width:7.0168;}
	.st10{fill:none;stroke:#EA4D93;stroke-width:5.7187;}
	.st11{fill:none;stroke:#EA4D93;stroke-width:5.2765;}
	.st12{fill:none;stroke:#EA4D93;stroke-width:4.8259;}
	.st13{fill:none;stroke:#EA4D93;stroke-width:4.5611;}
	.st14{fill:none;stroke:#EA4D93;stroke-width:4.058;}
	.st15{fill:none;stroke:#3D68B0;stroke-width:15.5083;}
	.st16{fill:none;stroke:#3D68B0;stroke-width:19.4117;}
	.st17{fill:none;stroke:#3D68B0;stroke-width:9.5906;}
	.st18{fill:none;stroke:#3D68B0;stroke-width:3.9387;}
	.st19{fill:none;stroke:#3D68B0;stroke-width:3.4998;}
	.st20{fill:none;stroke:#3D68B0;stroke-width:3.2171;}
	.st21{fill:none;stroke:#3D68B0;stroke-width:3.1779;}
	.st22{fill:none;stroke:#3D68B0;stroke-width:2.4783;}
	.st23{fill:none;stroke:#3D68B0;stroke-width:2.1555;}
	.st24{fill:none;stroke:#ECAF35;stroke-width:11.7165;}
	.st25{fill:none;stroke:#ECAF35;stroke-width:21.1263;}
	.st26{fill:none;stroke:#ECAF35;stroke-width:5.0636;}
	.st27{fill:none;stroke:#ECAF35;stroke-width:2.3415;}
	.st28{fill:none;stroke:#A7BFFF;stroke-width:29.7122;}
	.st29{fill:none;stroke:#A7BFFF;stroke-width:9.8346;}
	.st30{fill:none;stroke:#A7BFFF;stroke-width:8.6934;}
	.st31{fill:none;stroke:#A7BFFF;stroke-width:6.0895;}
	.st32{fill:none;stroke:#A7BFFF;stroke-width:3.6377;}
	.st33{fill:none;stroke:#A7BFFF;stroke-width:3.3771;}
	.st34{fill:#FFFFFF;}
	.st35{font-family:'Arial-BoldMT';}
	.st36{font-size:10px;}
	.st37{font-size:12px;}
</style>
<rect class="st0" width="850" height="650"/>
<g id="visualization" transform="translate(10,10)">
	<g>
		<rect x="802.5" y="37" width="5" height="2.2">
		<title>Belarus: 1949400</title>
		</rect>
		<rect x="802.5" y="44.2" width="5" height="2.3">
		<title>Cuba: 2117625</title>
		</rect>
		<rect x="802.5" y="51.5" width="5" height="2.5">
		<title>France: 2241346</title>
		</rect>
		<rect x="802.5" y="59" width="5" height="3.2">
		<title>Italy: 2874038</title>
		</rect>
		<rect x="802.5" y="67.2" width="5" height="3.2">
		<title>Ukraine: 2909491</title>
		</rect>
		<rect x="802.5" y="75.4" width="5" height="3.4">
		<title>Argentina: 3054267</title>
		</rect>
		<rect x="802.5" y="83.7" width="5" height="3.5">
		<title>Spain: 3165235</title>
		</rect>
		<rect x="802.5" y="92.2" width="5" height="3.6">
		<title>Venezuela: 3289886</title>
		</rect>
		<rect x="802.5" y="100.9" width="5" height="3.9">
		<title>Germany: 3562166</title>
		</rect>
		<rect x="802.5" y="109.8" width="5" height="4.1">
		<title>South Africa: 3670000</title>
		</rect>
		<rect x="802.5" y="118.9" width="5" height="4.6">
		<title>Ivory Coast: 4125000</title>
		</rect>
		<rect x="802.5" y="128.4" width="5" height="4.8">
		<title>Tanzania: 4364541</title>
		</rect>
		<rect x="802.5" y="138.3" width="5" height="5.1">
		<title>Canada: 4579532</title>
		</rect>
		<rect x="802.5" y="148.3" width="5" height="5.3">
		<title>Angola: 4772000</title>
		</rect>
		<rect x="802.5" y="158.6" width="5" height="5.7">
		<title>Sudan: 5172000</title>
		</rect>
		<rect x="802.5" y="169.3" width="5" height="6.1">
		<title>Chile: 5507282</title>
		</rect>
		<rect x="802.5" y="180.4" width="5" height="7">
		<title>Somalia: 6346000</title>
		</rect>
		<rect x="802.5" y="192.4" width="5" height="8.7">
		<title>Colombia: 7862277</title>
		</rect>
		<rect x="802.5" y="206.1" width="5" height="9.6">
		<title>United Kingdom: 8673713</title>
		</rect>
		<rect x="802.5" y="220.7" width="5" height="9.7">
		<title>Democratic Republic of the Congo: 8754000</title>
		</rect>
		<rect x="802.5" y="235.4" width="5" height="9.8">
		<title>Peru: 8894412</title>
		</rect>
		<rect x="802.5" y="250.2" width="5" height="11.1">
		<title>Indonesia: 10075310</title>
		</rect>
		<rect x="802.5" y="266.4" width="5" height="11.7">
		<title>Mexico: 10596331</title>
		</rect>
		<rect x="802.5" y="283.1" width="5" height="14.9">
		<title>Japan: 13513734</title>
		</rect>
		<rect x="802.5" y="303" width="5" height="15.5">
		<title>Turkey: 14025646</title>
		</rect>
		<rect x="802.5" y="323.5" width="5" height="17">
		<title>Egypt: 15388000</title>
		</rect>
		<rect x="802.5" y="345.6" width="5" height="19.4">
		<title>Russia: 17555816</title>
		</rect>
		<rect x="802.5" y="370" width="5" height="19.4">
		<title>Nigeria: 17578000</title>
		</rect>
		<rect x="802.5" y="394.4" width="5" height="21.1">
		<title>United States: 19106500</title>
		</rect>
		<rect x="802.5" y="420.5" width="5" height="26">
		<title>Pakistan: 23500000</title>
		</rect>
		<rect x="802.5" y="451.5" width="5" height="29.7">
		<title>Brazil: 26871561</title>
		</rect>
		<rect x="802.5" y="486.2" width="5" height="32.3">
		<title>India: 29230314</title>
		</rect>
		<rect x="22.5" y="107" width="5" height="40.2">
		<title>North America: 36399988</title>
		</rect>
		<rect x="22.5" y="152.2" width="5" height="61.3">
		<title>South America: 55479685</title>
		</rect>
		<rect x="22.5" y="218.6" width="5" height="63">
		<title>Europe: 56956851</title>
		</rect>
		<rect x="22.5" y="286.6" width="5" height="77.6">
		<title>Africa: 70169541</title>
		</rect>
		<rect x="802.5" y="523.5" width="5" height="93.5">
		<title>China: 84520700</title>
		</rect>
		<rect x="22.5" y="369.2" width="5" height="177.8">
		<title>Asia: 160840058</title>
		</rect>
	</g>
	<g>
		<g>
			<path class="st1" d="M27.5,500.3c387.5,0,387.5,70,775,70"/>
			<title>Asia → China: 84520700</title>
		</g>
		<g>
			<path class="st2" d="M27.5,408.2c387.5,0,387.5,25.3,775,25.3"/>
			<title>Asia → Pakistan: 23500000</title>
		</g>
		<g>
			<path class="st3" d="M27.5,437.4c387.5,0,387.5,65,775,65"/>
			<title>Asia → India: 29230314</title>
		</g>
		<g>
			<path class="st4" d="M27.5,387.8c387.5,0,387.5-97.2,775-97.2"/>
			<title>Asia → Japan: 13513734</title>
		</g>
		<g>
			<path class="st5" d="M27.5,374.7c387.5,0,387.5-118.9,775-118.9"/>
			<title>Asia → Indonesia: 10075310</title>
		</g>
		<g>
			<path class="st6" d="M27.5,354.4c387.5,0,387.5,25.2,775,25.2"/>
			<title>Africa → Nigeria: 17578000</title>
		</g>
		<g>
			<path class="st7" d="M27.5,336.2c387.5,0,387.5-4.2,775-4.2"/>
			<title>Africa → Egypt: 15388000</title>
		</g>
		<g>
			<path class="st8" d="M27.5,322.9c387.5,0,387.5-97.3,775-97.3"/>
			<title>Africa → Democratic Republic of the Congo: 8754000</title>
		</g>
		<g>
			<path class="st9" d="M27.5,314.5c387.5,0,387.5-130.6,775-130.6"/>
			<title>Africa → Somalia: 6346000</title>
		</g>
		<g>
			<path class="st10" d="M27.5,308.2c387.5,0,387.5-146.7,775-146.7"/>
			<title>Africa → Sudan: 5172000</title>
		</g>
		<g>
			<path class="st11" d="M27.5,302.7C415,302.7,415,151,802.5,151"/>
			<title>Africa → Angola: 4772000</title>
		</g>
		<g>
			<path class="st12" d="M27.5,297.6c387.5,0,387.5-166.7,775-166.7"/>
			<title>Africa → Tanzania: 4364541</title>
		</g>
		<g>
			<path class="st13" d="M27.5,292.9c387.5,0,387.5-171.7,775-171.7"/>
			<title>Africa → Ivory Coast: 4125000</title>
		</g>
		<g>
			<path class="st14" d="M27.5,288.6c387.5,0,387.5-176.7,775-176.7"/>
			<title>Africa → South Africa: 3670000</title>
		</g>
		<g>
			<path class="st15" d="M27.5,254.4c387.5,0,387.5,56.4,775,56.4"/>
			<title>Europe → Turkey: 14025646</title>
		</g>
		<g>
			<path class="st16" d="M27.5,271.9c387.5,0,387.5,83.4,775,83.4"/>
			<title>Europe → Russia: 17555816</title>
		</g>
		<g>
			<path class="st17" d="M27.5,241.9c387.5,0,387.5-30.9,775-30.9"/>
			<title>Europe → United Kingdom: 8673713</title>
		</g>
		<g>
			<path class="st18" d="M27.5,235.1c387.5,0,387.5-132.2,775-132.2"/>
			<title>Europe → Germany: 3562166</title>
		</g>
		<g>
			<path class="st19" d="M27.5,231.4c387.5,0,387.5-145.9,775-145.9"/>
			<title>Europe → Spain: 3165235</title>
		</g>
		<g>
			<path class="st20" d="M27.5,228C415,228,415,68.8,802.5,68.8"/>
			<title>Europe → Ukraine: 2909491</title>
		</g>
		<g>
			<path class="st21" d="M27.5,224.8c387.5,0,387.5-164.3,775-164.3"/>
			<title>Europe → Italy: 2874038</title>
		</g>
		<g>
			<path class="st22" d="M27.5,222C415,222,415,52.7,802.5,52.7"/>
			<title>Europe → France: 2241346</title>
		</g>
		<g>
			<path class="st23" d="M27.5,219.7c387.5,0,387.5-181.6,775-181.6"/>
			<title>Europe → Belarus: 1949400</title>
		</g>
		<g>
			<path class="st24" d="M27.5,120.3c387.5,0,387.5,152,775,152"/>
			<title>North America → Mexico: 10596331</title>
		</g>
		<g>
			<path class="st25" d="M27.5,136.7C415,136.7,415,405,802.5,405"/>
			<title>North America → United States: 19106500</title>
		</g>
		<g>
			<path class="st26" d="M27.5,111.9c387.5,0,387.5,28.9,775,28.9"/>
			<title>North America → Canada: 4579532</title>
		</g>
		<g>
			<path class="st27" d="M27.5,108.2c387.5,0,387.5-62.8,775-62.8"/>
			<title>North America → Cuba: 2117625</title>
		</g>
		<g>
			<path class="st28" d="M27.5,198.7c387.5,0,387.5,267.6,775,267.6"/>
			<title>South America → Brazil: 26871561</title>
		</g>
		<g>
			<path class="st29" d="M27.5,179c387.5,0,387.5,61.4,775,61.4"/>
			<title>South America → Peru: 8894412</title>
		</g>
		<g>
			<path class="st30" d="M27.5,169.7c387.5,0,387.5,27.1,775,27.1"/>
			<title>South America → Colombia: 7862277</title>
		</g>
		<g>
			<path class="st31" d="M27.5,162.3c387.5,0,387.5,10.1,775,10.1"/>
			<title>South America → Chile: 5507282</title>
		</g>
		<g>
			<path class="st32" d="M27.5,157.4c387.5,0,387.5-63.4,775-63.4"/>
			<title>South America → Venezuela: 3289886</title>
		</g>
		<g>
			<path class="st33" d="M27.5,153.9c387.5,0,387.5-76.9,775-76.9"/>
			<title>South America → Argentina: 3054267</title>
		</g>
	</g>
	<g>
		<text transform="matrix(1 0 0 1 762.5033 39.3931)" class="st34 st35 st36">Belarus</text>
		<text transform="matrix(1 0 0 1 773.1179 47.332)" class="st34 st35 st36">Cuba</text>
		<text transform="matrix(1 0 0 1 765.707 53.9816)" class="st34 st35 st36">France</text>
		<text transform="matrix(1 0 0 1 778.4902 62.3325)" class="st34 st35 st36">Italy</text>
		<text transform="matrix(1 0 0 1 761.8154 70.3063)" class="st34 st35 st36">Ukraine</text>
		<text transform="matrix(1 0 0 1 751.983 78.7889)" class="st34 st35 st36">Argentina</text>
		<text transform="matrix(1 0 0 1 771.2734 87.1204)" class="st34 st35 st36">Spain</text>
		<text transform="matrix(1 0 0 1 750.2552 96.0715)" class="st34 st35 st36">Venezuela</text>
		<text transform="matrix(1 0 0 1 755.1455 104.6448)" class="st34 st35 st36">Germany</text>
		<text transform="matrix(1 0 0 1 739.8815 114.0851)" class="st34 st35 st36">South Africa</text>
		<text transform="matrix(1 0 0 1 744.0371 123.5308)" class="st34 st35 st36">Ivory Coast</text>
		<text transform="matrix(1 0 0 1 756.2248 133.3174)" class="st34 st35 st36">Tanzania</text>
		<text transform="matrix(1 0 0 1 762.2623 142.9923)" class="st34 st35 st36">Canada</text>
		<text transform="matrix(1 0 0 1 764.384 153.7561)" class="st34 st35 st36">Angola</text>
		<text transform="matrix(1 0 0 1 768.2873 164.2737)" class="st34 st35 st36">Sudan</text>
		<text transform="matrix(1 0 0 1 774.0518 175.0632)" class="st34 st35 st36">Chile</text>
		<text transform="matrix(1 0 0 1 760.609 186.48)" class="st34 st35 st36">Somalia</text>
		<text transform="matrix(1 0 0 1 752.9434 199.9276)" class="st34 st35 st36">Colombia</text>
		<text transform="matrix(1 0 0 1 721.2881 213.6555)" class="st34 st35 st36">United Kingdom</text>
		<text transform="matrix(1 0 0 1 634.484 228.3441)" class="st34 st35 st36">Democratic Republic of the Congo</text>
		<text transform="matrix(1 0 0 1 776.2686 243.8881)" class="st34 st35 st36">Peru</text>
		<text transform="matrix(1 0 0 1 751.9016 259.1809)" class="st34 st35 st36">Indonesia</text>
		<text transform="matrix(1 0 0 1 764.8279 275.4474)" class="st34 st35 st36">Mexico</text>
		<text transform="matrix(1 0 0 1 769.5986 292.7182)" class="st34 st35 st36">Japan</text>
		<text transform="matrix(1 0 0 1 766.4492 313.7054)" class="st34 st35 st36">Turkey</text>
		<text transform="matrix(1 0 0 1 770.7217 334.0669)" class="st34 st35 st36">Egypt</text>
		<text transform="matrix(1 0 0 1 765.9363 357.2868)" class="st34 st35 st36">Russia</text>
		<text transform="matrix(1 0 0 1 764.5986 382.1454)" class="st34 st35 st36">Nigeria</text>
		<text transform="matrix(1 0 0 1 735.0573 407.1973)" class="st34 st35 st36">United States</text>
		<text transform="matrix(1 0 0 1 757.1379 436.6698)" class="st34 st35 st36">Pakistan</text>
		<text transform="matrix(1 0 0 1 771.4979 468.6747)" class="st34 st35 st36">Brazil</text>
		<text transform="matrix(1 0 0 1 775.165 505.4124)" class="st34 st35 st36">India</text>
		<text transform="matrix(1 0 0 1 31.5 129.627)" class="st34 st35 st36">North America</text>
		<text transform="matrix(1 0 0 1 31.5 186.3757)" class="st34 st35 st36">South America</text>
		<text transform="matrix(1 0 0 1 30.5828 253.7837)" class="st34 st35 st36">Europe</text>
		<text transform="matrix(1 0 0 1 31.0414 328.4506)" class="st34 st35 st36">Africa</text>
		<text transform="matrix(1 0 0 1 770.7217 572.5049)" class="st34 st35 st36">China</text>
		<text transform="matrix(1 0 0 1 31.5 457.5597)" class="st34 st35 st36">Asia</text>
	</g>
	<g>
		<text transform="matrix(1 0 0 1 761.8154 22.5669)" class="st34 st35 st37">Country</text>
		<text transform="matrix(1 0 0 1 22.5 99.3312)" class="st34 st35 st37">Continent</text>
	</g>
</g>
</svg>
