<svg xmlns="http://www.w3.org/2000/svg" width="805" height="600"><rect width="805" height="600" x="0" y="0" fill="#FFFFFF" id="backgorund"/><g transform="translate(10,10)" id="visualization"><g><rect x="780" y="1.1368683772161603e-13" height="2.155472836035756" width="5" fill="black"><title>Belarus: 1949400</title></rect><rect x="780" y="7.1554728360358695" height="2.3414810528420276" width="5" fill="black"><title>Cuba: 2117625</title></rect><rect x="780" y="14.496953888877897" height="2.4782807115817036" width="5" fill="black"><title>France: 2241346</title></rect><rect x="780" y="21.9752346004596" height="3.1778551547832876" width="5" fill="black"><title>Italy: 2874038</title></rect><rect x="780" y="30.15308975524289" height="3.2170559234587586" width="5" fill="black"><title>Ukraine: 2909491</title></rect><rect x="780" y="38.37014567870165" height="3.377136325279821" width="5" fill="black"><title>Argentina: 3054267</title></rect><rect x="780" y="46.74728200398147" height="3.49983485286225" width="5" fill="black"><title>Spain: 3165235</title></rect><rect x="780" y="55.24711685684372" height="3.637662822742527" width="5" fill="black"><title>Venezuela: 3289886</title></rect><rect x="780" y="63.884779679586245" height="3.938725787652686" width="5" fill="black"><title>Germany: 3562166</title></rect><rect x="780" y="72.82350546723893" height="4.0579590172623625" width="5" fill="black"><title>South Africa: 3670000</title></rect><rect x="780" y="81.8814644845013" height="4.561057478530586" width="5" fill="black"><title>Ivory Coast: 4125000</title></rect><rect x="780" y="91.44252196303188" height="4.825920574158374" width="5" fill="black"><title>Tanzania: 4364541</title></rect><rect x="780" y="101.26844253719025" height="5.063638467095814" width="5" fill="black"><title>Canada: 4579532</title></rect><rect x="780" y="111.33208100428607" height="5.276452433344957" width="5" fill="black"><title>Angola: 4772000</title></rect><rect x="780" y="121.60853343763102" height="5.718736794899428" width="5" fill="black"><title>Sudan: 5172000</title></rect><rect x="780" y="132.32727023253045" height="6.089461758176185" width="5" fill="black"><title>Chile: 5507282</title></rect><rect x="780" y="143.41673199070664" height="7.016841396061864" width="5" fill="black"><title>Somalia: 6346000</title></rect><rect x="780" y="155.4335733867685" height="8.693405408273748" width="5" fill="black"><title>Colombia: 7862277</title></rect><rect x="780" y="169.12697879504225" height="9.590619041279524" width="5" fill="black"><title>United Kingdom: 8673713</title></rect><rect x="780" y="183.71759783632177" height="9.679393252619775" width="5" fill="black"><title>Democratic Republic of the Congo: 8754000</title></rect><rect x="780" y="198.39699108894155" height="9.834648332056304" width="5" fill="black"><title>Peru: 8894412</title></rect><rect x="780" y="213.23163942099785" height="11.140380127033694" width="5" fill="black"><title>Indonesia: 10075310</title></rect><rect x="780" y="229.37201954803155" height="11.71647872788742" width="5" fill="black"><title>Mexico: 10596331</title></rect><rect x="780" y="246.08849827591897" height="14.942283036017756" width="5" fill="black"><title>Japan: 13513734</title></rect><rect x="780" y="266.0307813119367" height="15.508309716247936" width="5" fill="black"><title>Turkey: 14025646</title></rect><rect x="780" y="286.53909102818466" height="17.01467938900089" width="5" fill="black"><title>Egypt: 15388000</title></rect><rect x="780" y="308.55377041718555" height="19.411657177819848" width="5" fill="black"><title>Russia: 17555816</title></rect><rect x="780" y="332.9654275950054" height="19.436186268511676" width="5" fill="black"><title>Nigeria: 17578000</title></rect><rect x="780" y="357.40161386351707" height="21.12626538510176" width="5" fill="black"><title>United States: 19106500</title></rect><rect x="780" y="383.52787924861883" height="25.984206241325808" width="5" fill="black"><title>Pakistan: 23500000</title></rect><rect x="780" y="414.51208548994464" height="29.71217800214322" width="5" fill="black"><title>Brazil: 26871561</title></rect><rect x="780" y="449.22426349208786" height="32.320276913817565" width="5" fill="black"><title>India: 29230314</title></rect><rect x="0" y="69.99999999999994" height="40.247863632926965" width="5" fill="black"><title>North America: 36399988</title></rect><rect x="0" y="115.24786363292691" height="61.34449264867192" width="5" fill="black"><title>South America: 55479685</title></rect><rect x="0" y="181.59235628159882" height="62.977811201721806" width="5" fill="black"><title>Europe: 56956851</title></rect><rect x="0" y="249.57016748332063" height="77.58722660438997" width="5" fill="black"><title>Africa: 70169541</title></rect><rect x="780" y="486.5445404059054" height="93.45545959409458" width="5" fill="black"><title>China: 84520700</title></rect><rect x="0" y="332.1573940877106" height="177.8426059122894" width="5" fill="black"><title>Asia: 160840058</title></rect></g><g fill="none" stroke-opacity="1"><g style="mix-blend-mode: multiply;"><path d="M5,463.27227020295277C392.5,463.27227020295277,392.5,533.2722702029528,780,533.2722702029528" stroke="#ffa46f" stroke-width="93.45545959409463"/><title>Asia → China: 84520700</title></g><g style="mix-blend-mode: multiply;"><path d="M5,371.2321603714249C392.5,371.2321603714249,392.5,396.5199823692817,780,396.5199823692817" stroke="#ffa46f" stroke-width="25.984206241325783"/><title>Asia → Pakistan: 23500000</title></g><g style="mix-blend-mode: multiply;"><path d="M5,400.38440194899664C392.5,400.38440194899664,392.5,465.38440194899664,780,465.38440194899664" stroke="#ffa46f" stroke-width="32.32027691381755"/><title>Asia → India: 29230314</title></g><g style="mix-blend-mode: multiply;"><path d="M5,350.76891573275316C392.5,350.76891573275316,392.5,253.55963979392783,780,253.55963979392783" stroke="#ffa46f" stroke-width="14.94228303601772"/><title>Asia → Japan: 13513734</title></g><g style="mix-blend-mode: multiply;"><path d="M5,337.72758415122746C392.5,337.72758415122746,392.5,218.8018294845147,780,218.8018294845147" stroke="#ffa46f" stroke-width="11.140380127033705"/><title>Asia → Indonesia: 10075310</title></g><g style="mix-blend-mode: multiply;"><path d="M5,317.4393009534548C392.5,317.4393009534548,392.5,342.68352072926126,780,342.68352072926126" stroke="#fe7bb1" stroke-width="19.436186268511683"/><title>Africa → Nigeria: 17578000</title></g><g style="mix-blend-mode: multiply;"><path d="M5,299.2138681246985C392.5,299.2138681246985,392.5,295.0464307226851,780,295.0464307226851" stroke="#fe7bb1" stroke-width="17.0146793890009"/><title>Africa → Egypt: 15388000</title></g><g style="mix-blend-mode: multiply;"><path d="M5,285.8668318038881C392.5,285.8668318038881,392.5,188.5572944626317,780,188.5572944626317" stroke="#fe7bb1" stroke-width="9.679393252619825"/><title>Africa → Democratic Republic of the Congo: 8754000</title></g><g style="mix-blend-mode: multiply;"><path d="M5,277.51871447954727C392.5,277.51871447954727,392.5,146.92515268873757,780,146.92515268873757" stroke="#fe7bb1" stroke-width="7.016841396061848"/><title>Africa → Somalia: 6346000</title></g><g style="mix-blend-mode: multiply;"><path d="M5,271.1509253840666C392.5,271.1509253840666,392.5,124.46790183508075,780,124.46790183508075" stroke="#fe7bb1" stroke-width="5.718736794899445"/><title>Africa → Sudan: 5172000</title></g><g style="mix-blend-mode: multiply;"><path d="M5,265.65333076994443C392.5,265.65333076994443,392.5,113.97030722095855,780,113.97030722095855" stroke="#fe7bb1" stroke-width="5.276452433344963"/><title>Africa → Angola: 4772000</title></g><g style="mix-blend-mode: multiply;"><path d="M5,260.6021442661928C392.5,260.6021442661928,392.5,93.85548225011108,780,93.85548225011108" stroke="#fe7bb1" stroke-width="4.825920574158395"/><title>Africa → Tanzania: 4364541</title></g><g style="mix-blend-mode: multiply;"><path d="M5,255.9086552398483C392.5,255.9086552398483,392.5,84.16199322376659,780,84.16199322376659" stroke="#fe7bb1" stroke-width="4.561057478530589"/><title>Africa → Ivory Coast: 4125000</title></g><g style="mix-blend-mode: multiply;"><path d="M5,251.5991469919518C392.5,251.5991469919518,392.5,74.85248497587011,780,74.85248497587011" stroke="#fe7bb1" stroke-width="4.057959017262367"/><title>Africa → South Africa: 3670000</title></g><g style="mix-blend-mode: multiply;"><path d="M5,217.40435544737684C392.5,217.40435544737684,392.5,273.7849361700607,780,273.7849361700607" stroke="#f4ee7e" stroke-width="15.508309716247915"/><title>Europe → Turkey: 14025646</title></g><g style="mix-blend-mode: multiply;"><path d="M5,234.8643388944107C392.5,234.8643388944107,392.5,318.25959900609547,780,318.25959900609547" stroke="#f4ee7e" stroke-width="19.411657177819873"/><title>Europe → Russia: 17555816</title></g><g style="mix-blend-mode: multiply;"><path d="M5,204.8548910686131C392.5,204.8548910686131,392.5,173.922288315682,780,173.922288315682" stroke="#f4ee7e" stroke-width="9.590619041279513"/><title>Europe → United Kingdom: 8673713</title></g><g style="mix-blend-mode: multiply;"><path d="M5,198.09021865414698C392.5,198.09021865414698,392.5,65.8541425734126,780,65.8541425734126" stroke="#f4ee7e" stroke-width="3.938725787652702"/><title>Europe → Germany: 3562166</title></g><g style="mix-blend-mode: multiply;"><path d="M5,194.3709383338895C392.5,194.3709383338895,392.5,48.49719943041259,780,48.49719943041259" stroke="#f4ee7e" stroke-width="3.4998348528622474"/><title>Europe → Spain: 3165235</title></g><g style="mix-blend-mode: multiply;"><path d="M5,191.01249294572898C392.5,191.01249294572898,392.5,31.761617716972275,780,31.761617716972275" stroke="#f4ee7e" stroke-width="3.217055923458774"/><title>Europe → Ukraine: 2909491</title></g><g style="mix-blend-mode: multiply;"><path d="M5,187.81503740660796C392.5,187.81503740660796,392.5,23.564162177851248,780,23.564162177851248" stroke="#f4ee7e" stroke-width="3.1778551547832965"/><title>Europe → Italy: 2874038</title></g><g style="mix-blend-mode: multiply;"><path d="M5,184.98696947342543C392.5,184.98696947342543,392.5,15.73609424466876,780,15.73609424466876" stroke="#f4ee7e" stroke-width="2.4782807115817267"/><title>Europe → France: 2241346</title></g><g style="mix-blend-mode: multiply;"><path d="M5,182.6700926996167C392.5,182.6700926996167,392.5,1.0777364180179962,780,1.0777364180179962" stroke="#f4ee7e" stroke-width="2.155472836035765"/><title>Europe → Belarus: 1949400</title></g><g style="mix-blend-mode: multiply;"><path d="M5,83.26335888388147C392.5,83.26335888388147,392.5,235.23025891197526,780,235.23025891197526" stroke="#9aebbb" stroke-width="11.716478727887399"/><title>North America → Mexico: 10596331</title></g><g style="mix-blend-mode: multiply;"><path d="M5,99.68473094037606C392.5,99.68473094037606,392.5,367.96474655606795,780,367.96474655606795" stroke="#9aebbb" stroke-width="21.126265385101746"/><title>North America → United States: 19106500</title></g><g style="mix-blend-mode: multiply;"><path d="M5,74.87330028638986C392.5,74.87330028638986,392.5,103.80026177073815,780,103.80026177073815" stroke="#9aebbb" stroke-width="5.063638467095793"/><title>North America → Canada: 4579532</title></g><g style="mix-blend-mode: multiply;"><path d="M5,71.17074052642096C392.5,71.17074052642096,392.5,8.32621336245688,780,8.32621336245688" stroke="#9aebbb" stroke-width="2.341481052842022"/><title>North America → Cuba: 2117625</title></g><g style="mix-blend-mode: multiply;"><path d="M5,161.73626728052716C392.5,161.73626728052716,392.5,429.36817449101625,780,429.36817449101625" stroke="#a7bfff" stroke-width="29.712178002143254"/><title>South America → Brazil: 26871561</title></g><g style="mix-blend-mode: multiply;"><path d="M5,141.96285411342737C392.5,141.96285411342737,392.5,203.3143152549697,780,203.3143152549697" stroke="#a7bfff" stroke-width="9.834648332056295"/><title>South America → Peru: 8894412</title></g><g style="mix-blend-mode: multiply;"><path d="M5,132.69882724326234C392.5,132.69882724326234,392.5,159.78027609090535,780,159.78027609090535" stroke="#a7bfff" stroke-width="8.693405408273708"/><title>South America → Colombia: 7862277</title></g><g style="mix-blend-mode: multiply;"><path d="M5,125.30739366003739C392.5,125.30739366003739,392.5,135.37200111161857,780,135.37200111161857" stroke="#a7bfff" stroke-width="6.089461758176219"/><title>South America → Chile: 5507282</title></g><g style="mix-blend-mode: multiply;"><path d="M5,120.44383136957799C392.5,120.44383136957799,392.5,57.065948268215,780,57.065948268215" stroke="#a7bfff" stroke-width="3.6376628227425662"/><title>South America → Venezuela: 3289886</title></g><g style="mix-blend-mode: multiply;"><path d="M5,116.9364317955668C392.5,116.9364317955668,392.5,40.05871384134155,780,40.05871384134155" stroke="#a7bfff" stroke-width="3.3771363252798032"/><title>South America → Argentina: 3054267</title></g></g><g><text x="776" y="1.0777364180179916" text-anchor="end"><tspan alignment-baseline="middle" x="776" style="font-family: Arial, sans-serif; font-size: 10px; fill: black; font-weight: bold;">Belarus</tspan></text><text x="776" y="8.326213362456883" text-anchor="end"><tspan alignment-baseline="middle" x="776" style="font-family: Arial, sans-serif; font-size: 10px; fill: black; font-weight: bold;">Cuba</tspan></text><text x="776" y="15.736094244668749" text-anchor="end"><tspan alignment-baseline="middle" x="776" style="font-family: Arial, sans-serif; font-size: 10px; fill: black; font-weight: bold;">France</tspan></text><text x="776" y="23.564162177851244" text-anchor="end"><tspan alignment-baseline="middle" x="776" style="font-family: Arial, sans-serif; font-size: 10px; fill: black; font-weight: bold;">Italy</tspan></text><text x="776" y="31.761617716972268" text-anchor="end"><tspan alignment-baseline="middle" x="776" style="font-family: Arial, sans-serif; font-size: 10px; fill: black; font-weight: bold;">Ukraine</tspan></text><text x="776" y="40.05871384134156" text-anchor="end"><tspan alignment-baseline="middle" x="776" style="font-family: Arial, sans-serif; font-size: 10px; fill: black; font-weight: bold;">Argentina</tspan></text><text x="776" y="48.49719943041259" text-anchor="end"><tspan alignment-baseline="middle" x="776" style="font-family: Arial, sans-serif; font-size: 10px; fill: black; font-weight: bold;">Spain</tspan></text><text x="776" y="57.06594826821498" text-anchor="end"><tspan alignment-baseline="middle" x="776" style="font-family: Arial, sans-serif; font-size: 10px; fill: black; font-weight: bold;">Venezuela</tspan></text><text x="776" y="65.85414257341259" text-anchor="end"><tspan alignment-baseline="middle" x="776" style="font-family: Arial, sans-serif; font-size: 10px; fill: black; font-weight: bold;">Germany</tspan></text><text x="776" y="74.85248497587011" text-anchor="end"><tspan alignment-baseline="middle" x="776" style="font-family: Arial, sans-serif; font-size: 10px; fill: black; font-weight: bold;">South Africa</tspan></text><text x="776" y="84.16199322376659" text-anchor="end"><tspan alignment-baseline="middle" x="776" style="font-family: Arial, sans-serif; font-size: 10px; fill: black; font-weight: bold;">Ivory Coast</tspan></text><text x="776" y="93.85548225011107" text-anchor="end"><tspan alignment-baseline="middle" x="776" style="font-family: Arial, sans-serif; font-size: 10px; fill: black; font-weight: bold;">Tanzania</tspan></text><text x="776" y="103.80026177073816" text-anchor="end"><tspan alignment-baseline="middle" x="776" style="font-family: Arial, sans-serif; font-size: 10px; fill: black; font-weight: bold;">Canada</tspan></text><text x="776" y="113.97030722095855" text-anchor="end"><tspan alignment-baseline="middle" x="776" style="font-family: Arial, sans-serif; font-size: 10px; fill: black; font-weight: bold;">Angola</tspan></text><text x="776" y="124.46790183508074" text-anchor="end"><tspan alignment-baseline="middle" x="776" style="font-family: Arial, sans-serif; font-size: 10px; fill: black; font-weight: bold;">Sudan</tspan></text><text x="776" y="135.37200111161854" text-anchor="end"><tspan alignment-baseline="middle" x="776" style="font-family: Arial, sans-serif; font-size: 10px; fill: black; font-weight: bold;">Chile</tspan></text><text x="776" y="146.92515268873757" text-anchor="end"><tspan alignment-baseline="middle" x="776" style="font-family: Arial, sans-serif; font-size: 10px; fill: black; font-weight: bold;">Somalia</tspan></text><text x="776" y="159.78027609090537" text-anchor="end"><tspan alignment-baseline="middle" x="776" style="font-family: Arial, sans-serif; font-size: 10px; fill: black; font-weight: bold;">Colombia</tspan></text><text x="776" y="173.922288315682" text-anchor="end"><tspan alignment-baseline="middle" x="776" style="font-family: Arial, sans-serif; font-size: 10px; fill: black; font-weight: bold;">United Kingdom</tspan></text><text x="776" y="188.55729446263166" text-anchor="end"><tspan alignment-baseline="middle" x="776" style="font-family: Arial, sans-serif; font-size: 10px; fill: black; font-weight: bold;">Democratic Republic of the Congo</tspan></text><text x="776" y="203.3143152549697" text-anchor="end"><tspan alignment-baseline="middle" x="776" style="font-family: Arial, sans-serif; font-size: 10px; fill: black; font-weight: bold;">Peru</tspan></text><text x="776" y="218.8018294845147" text-anchor="end"><tspan alignment-baseline="middle" x="776" style="font-family: Arial, sans-serif; font-size: 10px; fill: black; font-weight: bold;">Indonesia</tspan></text><text x="776" y="235.23025891197526" text-anchor="end"><tspan alignment-baseline="middle" x="776" style="font-family: Arial, sans-serif; font-size: 10px; fill: black; font-weight: bold;">Mexico</tspan></text><text x="776" y="253.55963979392783" text-anchor="end"><tspan alignment-baseline="middle" x="776" style="font-family: Arial, sans-serif; font-size: 10px; fill: black; font-weight: bold;">Japan</tspan></text><text x="776" y="273.7849361700607" text-anchor="end"><tspan alignment-baseline="middle" x="776" style="font-family: Arial, sans-serif; font-size: 10px; fill: black; font-weight: bold;">Turkey</tspan></text><text x="776" y="295.0464307226851" text-anchor="end"><tspan alignment-baseline="middle" x="776" style="font-family: Arial, sans-serif; font-size: 10px; fill: black; font-weight: bold;">Egypt</tspan></text><text x="776" y="318.25959900609547" text-anchor="end"><tspan alignment-baseline="middle" x="776" style="font-family: Arial, sans-serif; font-size: 10px; fill: black; font-weight: bold;">Russia</tspan></text><text x="776" y="342.6835207292612" text-anchor="end"><tspan alignment-baseline="middle" x="776" style="font-family: Arial, sans-serif; font-size: 10px; fill: black; font-weight: bold;">Nigeria</tspan></text><text x="776" y="367.96474655606795" text-anchor="end"><tspan alignment-baseline="middle" x="776" style="font-family: Arial, sans-serif; font-size: 10px; fill: black; font-weight: bold;">United States</tspan></text><text x="776" y="396.5199823692817" text-anchor="end"><tspan alignment-baseline="middle" x="776" style="font-family: Arial, sans-serif; font-size: 10px; fill: black; font-weight: bold;">Pakistan</tspan></text><text x="776" y="429.36817449101625" text-anchor="end"><tspan alignment-baseline="middle" x="776" style="font-family: Arial, sans-serif; font-size: 10px; fill: black; font-weight: bold;">Brazil</tspan></text><text x="776" y="465.38440194899664" text-anchor="end"><tspan alignment-baseline="middle" x="776" style="font-family: Arial, sans-serif; font-size: 10px; fill: black; font-weight: bold;">India</tspan></text><text x="9" y="90.12393181646343" text-anchor="start"><tspan alignment-baseline="middle" x="9" style="font-family: Arial, sans-serif; font-size: 10px; fill: black; font-weight: bold;">North America</tspan></text><text x="9" y="145.92010995726287" text-anchor="start"><tspan alignment-baseline="middle" x="9" style="font-family: Arial, sans-serif; font-size: 10px; fill: black; font-weight: bold;">South America</tspan></text><text x="9" y="213.08126188245973" text-anchor="start"><tspan alignment-baseline="middle" x="9" style="font-family: Arial, sans-serif; font-size: 10px; fill: black; font-weight: bold;">Europe</tspan></text><text x="9" y="288.3637807855156" text-anchor="start"><tspan alignment-baseline="middle" x="9" style="font-family: Arial, sans-serif; font-size: 10px; fill: black; font-weight: bold;">Africa</tspan></text><text x="776" y="533.2722702029528" text-anchor="end"><tspan alignment-baseline="middle" x="776" style="font-family: Arial, sans-serif; font-size: 10px; fill: black; font-weight: bold;">China</tspan></text><text x="9" y="421.0786970438553" text-anchor="start"><tspan alignment-baseline="middle" x="9" style="font-family: Arial, sans-serif; font-size: 10px; fill: black; font-weight: bold;">Asia</tspan></text></g><g><text x="782.5" y="-3.9999999999998863" text-anchor="middle" style="font-family: Arial, sans-serif; font-size: 12px; fill: rgb(123, 123, 123); font-weight: bold;">Country</text><text x="2.5" y="65.99999999999994" text-anchor="middle" style="font-family: Arial, sans-serif; font-size: 12px; fill: rgb(123, 123, 123); font-weight: bold;">Continent</text></g></g></svg>